<?xml version="1.0" encoding="UTF-8"?>
<svg xmlns="http://www.w3.org/2000/svg" xmlns:xlink="http://www.w3.org/1999/xlink" width="20px" height="23px" viewBox="0 0 20 22" version="1.1">
<g id="surface1">
<path fill="#FF9F40" d="M 11.007812 20.222656 C 10.449219 20.757812 9.542969 20.757812 8.988281 20.222656 L 1.84375 13.347656 C 1.285156 12.808594 1.285156 11.9375 1.84375 11.398438 C 2.402344 10.863281 3.308594 10.863281 3.867188 11.398438 L 10 17.304688 L 16.132812 11.402344 C 16.691406 10.867188 17.597656 10.867188 18.15625 11.402344 C 18.714844 11.941406 18.714844 12.8125 18.15625 13.351562 L 11.011719 20.226562 Z M 18.152344 5.097656 L 11.007812 11.972656 C 10.449219 12.507812 9.542969 12.507812 8.988281 11.972656 L 1.84375 5.097656 C 1.285156 4.558594 1.285156 3.6875 1.84375 3.148438 C 2.402344 2.613281 3.308594 2.613281 3.867188 3.148438 L 10 9.054688 L 16.132812 3.152344 C 16.691406 2.617188 17.597656 2.617188 18.15625 3.152344 C 18.714844 3.691406 18.714844 4.5625 18.15625 5.101562 Z M 18.152344 5.097656 "/>
</g>
</svg>
