<svg xmlns="http://www.w3.org/2000/svg" xmlns:xlink="http://www.w3.org/1999/xlink" width="20px" height="px" viewBox="0 0 20 20" version="1.1">
<g id="surface1">
<path fill="#000000" d="M 1.875 2.5 C 0.839844 2.5 0 3.339844 0 4.375 C 0 4.964844 0.277344 5.519531 0.75 5.875 L 9.25 12.25 C 9.695312 12.582031 10.304688 12.582031 10.75 12.25 L 19.25 5.875 C 19.722656 5.519531 20 4.964844 20 4.375 C 20 3.339844 19.160156 2.5 18.125 2.5 Z M 0 6.875 L 0 15 C 0 16.378906 1.121094 17.5 2.5 17.5 L 17.5 17.5 C 18.878906 17.5 20 16.378906 20 15 L 20 6.875 L 11.5 13.25 C 10.609375 13.917969 9.390625 13.917969 8.5 13.25 Z M 0 6.875 "/>
</g>
</svg>
