<?xml version="1.0" encoding="UTF-8"?>
<svg xmlns="http://www.w3.org/2000/svg" xmlns:xlink="http://www.w3.org/1999/xlink" width="50px" height="53px" viewBox="0 0 50 52" version="1.1">
<g id="surface1">
<path style=" stroke:none;fill-rule:nonzero;fill:rgb(0%,0%,0%);fill-opacity:1;" d="M 16.726562 39.675781 C 16.726562 39.871094 16.492188 40.023438 16.203125 40.023438 C 15.867188 40.054688 15.632812 39.898438 15.632812 39.675781 C 15.632812 39.484375 15.867188 39.328125 16.164062 39.328125 C 16.464844 39.300781 16.726562 39.453125 16.726562 39.675781 Z M 13.585938 39.242188 C 13.515625 39.433594 13.71875 39.65625 14.023438 39.714844 C 14.289062 39.8125 14.589844 39.714844 14.648438 39.523438 C 14.707031 39.328125 14.511719 39.105469 14.210938 39.019531 C 13.953125 38.953125 13.664062 39.046875 13.585938 39.242188 Z M 18.046875 39.078125 C 17.753906 39.144531 17.546875 39.328125 17.578125 39.550781 C 17.609375 39.746094 17.871094 39.871094 18.171875 39.804688 C 18.46875 39.734375 18.671875 39.550781 18.640625 39.359375 C 18.613281 39.175781 18.339844 39.046875 18.046875 39.078125 Z M 24.679688 2.011719 C 10.695312 2.011719 0 12.195312 0 25.613281 C 0 36.339844 7.039062 45.519531 17.089844 48.75 C 18.378906 48.972656 18.828125 48.207031 18.828125 47.578125 C 18.828125 46.980469 18.796875 43.671875 18.796875 41.640625 C 18.796875 41.640625 11.75 43.089844 10.265625 38.757812 C 10.265625 38.757812 9.109375 35.945312 7.460938 35.21875 C 7.460938 35.21875 5.148438 33.699219 7.617188 33.726562 C 7.617188 33.726562 10.125 33.921875 11.515625 36.222656 C 13.71875 39.957031 17.421875 38.882812 18.859375 38.246094 C 19.09375 36.699219 19.746094 35.625 20.476562 34.984375 C 14.835938 34.386719 9.148438 33.601562 9.148438 24.296875 C 9.148438 21.636719 9.921875 20.304688 11.53125 18.601562 C 11.269531 17.972656 10.410156 15.378906 11.796875 12.03125 C 13.898438 11.402344 18.75 14.644531 18.75 14.644531 C 20.761719 14.101562 22.929688 13.820312 25.078125 13.820312 C 27.226562 13.820312 29.394531 14.101562 31.414062 14.644531 C 31.414062 14.644531 36.257812 11.394531 38.367188 12.03125 C 39.746094 15.390625 38.886719 17.972656 38.632812 18.601562 C 40.242188 20.3125 41.230469 21.648438 41.230469 24.296875 C 41.230469 33.632812 35.292969 34.375 29.65625 34.984375 C 30.585938 35.75 31.367188 37.199219 31.367188 39.472656 C 31.367188 42.734375 31.335938 46.765625 31.335938 47.558594 C 31.335938 48.1875 31.804688 48.953125 33.085938 48.730469 C 43.164062 45.519531 50 36.339844 50 25.613281 C 50 12.195312 38.664062 2.011719 24.679688 2.011719 Z M 9.796875 35.371094 C 9.667969 35.46875 9.695312 35.691406 9.875 35.875 C 10.03125 36.03125 10.265625 36.097656 10.390625 35.972656 C 10.527344 35.875 10.5 35.652344 10.320312 35.46875 C 10.164062 35.316406 9.929688 35.246094 9.796875 35.371094 Z M 8.710938 34.589844 C 8.640625 34.714844 8.742188 34.871094 8.945312 34.964844 C 9.101562 35.0625 9.304688 35.035156 9.375 34.898438 C 9.445312 34.773438 9.34375 34.617188 9.140625 34.523438 C 8.945312 34.464844 8.78125 34.492188 8.710938 34.589844 Z M 11.972656 38.03125 C 11.816406 38.160156 11.875 38.449219 12.109375 38.632812 C 12.335938 38.855469 12.625 38.882812 12.765625 38.730469 C 12.890625 38.601562 12.832031 38.3125 12.625 38.128906 C 12.414062 37.90625 12.109375 37.878906 11.972656 38.03125 Z M 10.828125 36.609375 C 10.664062 36.707031 10.664062 36.960938 10.828125 37.179688 C 10.984375 37.402344 11.257812 37.5 11.386719 37.402344 C 11.554688 37.277344 11.554688 37.027344 11.386719 36.804688 C 11.25 36.582031 10.984375 36.484375 10.828125 36.609375 Z M 10.828125 36.609375 "/>
</g>
</svg>
