<?xml version="1.0" encoding="UTF-8"?>
<svg xmlns="http://www.w3.org/2000/svg" xmlns:xlink="http://www.w3.org/1999/xlink" width="20px" height="40px" viewBox="0 0 20 40" version="1.1">
<g id="surface1">
<path fill="#f34945" d="M 16.390625 30.554688 L 15.289062 32.476562 L 14.929688 38.742188 C 14.929688 39.4375 12.71875 40 10 40 C 7.28125 40 5.070312 39.4375 5.070312 38.742188 L 4.617188 32.539062 L 3.453125 30.554688 C 6.671875 31.90625 13.296875 31.859375 16.390625 30.554688 Z M 1.078125 10.765625 L 2.140625 20.570312 C 2.601562 19.007812 3.765625 16.898438 5.265625 16.257812 C 5.757812 16.046875 6.257812 16.046875 6.726562 16.328125 C 7.132812 16.5625 7.476562 17.054688 7.515625 17.25 C 7.609375 17.757812 7.359375 17.960938 7.164062 17.960938 C 6.929688 17.960938 6.75 17.601562 6.632812 17.390625 C 6.3125 16.820312 5.828125 16.796875 5.3125 17.171875 C 4.773438 17.5625 4.304688 18.21875 3.976562 18.789062 C 3.578125 19.476562 3.242188 20.234375 3.039062 20.992188 C 2.921875 21.429688 2.8125 22.132812 2.992188 22.546875 C 3.070312 22.71875 3.1875 22.828125 3.375 22.828125 C 3.765625 22.828125 4.335938 22.3125 4.609375 22.039062 C 4.960938 21.6875 5.414062 21.140625 5.585938 20.789062 L 5.992188 19.578125 C 6.195312 19.046875 6.765625 19.140625 6.765625 19.578125 C 6.765625 20.375 6.476562 20.640625 5.984375 22.289062 C 5.53125 23.8125 5.390625 24.304688 5.390625 24.304688 C 5.335938 24.523438 5.125 24.890625 4.898438 24.890625 C 4.804688 24.890625 4.734375 24.859375 4.695312 24.796875 C 4.617188 24.6875 4.625 24.382812 4.632812 24.304688 C 4.648438 24.054688 5.125 22.570312 5.203125 22.335938 C 5.046875 22.507812 4.882812 22.679688 4.703125 22.851562 C 4.28125 23.25 3.601562 23.773438 3.023438 23.773438 C 2.757812 23.773438 2.585938 23.703125 2.421875 23.585938 L 3.015625 29.804688 C 3.171875 30.195312 6.078125 31.140625 9.90625 31.140625 C 13.742188 31.140625 16.648438 30.1875 16.796875 29.804688 L 17.648438 22.414062 C 17.203125 22.820312 16.6875 23.320312 16.117188 23.570312 C 15.695312 23.75 14.757812 23.867188 14.757812 23.125 C 14.757812 22.71875 15.46875 21.96875 15.882812 21.445312 C 15.992188 21.3125 16.25 20.984375 16.25 20.8125 C 16.25 20.585938 15.78125 20.640625 15.335938 21.007812 C 15.085938 21.21875 14.851562 21.5 14.65625 21.765625 C 14.320312 22.234375 14.140625 22.640625 13.992188 22.976562 C 13.507812 24.085938 13.671875 23.648438 13.28125 24.695312 C 12.890625 25.734375 12.953125 25.617188 12.875 25.789062 C 12.804688 25.9375 12.703125 26.0625 12.5625 26.140625 C 12.414062 26.21875 12.210938 26.210938 12.085938 26.117188 C 12.015625 26.070312 11.984375 25.96875 11.984375 25.828125 C 11.984375 25.757812 11.992188 25.6875 12.007812 25.617188 C 12.125 25.140625 12.617188 24.203125 13.179688 22.9375 C 13.304688 22.648438 13.257812 22.734375 13.242188 22.757812 C 12.757812 23.226562 12.390625 23.453125 12.117188 23.578125 C 11.664062 23.78125 11.101562 23.78125 10.984375 23.257812 C 10.976562 23.226562 10.976562 23.195312 10.96875 23.164062 C 10.046875 23.882812 9.070312 24.078125 9.40625 22.53125 C 9.046875 23.171875 8.421875 23.695312 7.65625 23.695312 C 7.335938 23.695312 7.101562 23.585938 6.984375 23.296875 C 6.804688 22.867188 7.085938 22.132812 7.34375 21.4375 C 7.476562 21.085938 7.65625 20.664062 7.898438 20.171875 C 8.023438 19.90625 8.226562 19.75 8.492188 19.820312 C 8.539062 19.835938 8.578125 19.851562 8.617188 19.875 C 8.820312 20.015625 8.742188 20.226562 8.640625 20.4375 C 8.34375 21.023438 8.085938 21.453125 7.914062 22.0625 C 7.84375 22.320312 7.757812 22.765625 8.03125 22.765625 C 8.21875 22.765625 8.398438 22.703125 8.570312 22.578125 C 8.929688 22.3125 9.21875 21.914062 9.4375 21.523438 C 9.59375 21.242188 9.78125 20.875 9.875 20.5625 C 9.914062 20.429688 9.960938 20.304688 10.015625 20.1875 C 10.101562 19.992188 10.21875 19.789062 10.421875 19.789062 C 10.523438 19.789062 10.609375 19.828125 10.671875 19.90625 C 10.804688 20.078125 10.773438 20.257812 10.703125 20.445312 C 10.546875 20.882812 10.335938 21.273438 10.164062 21.75 C 10.0625 22.023438 9.953125 22.375 9.953125 22.664062 C 9.953125 22.929688 10.242188 22.867188 10.484375 22.757812 C 10.671875 22.671875 10.859375 22.539062 11.015625 22.40625 C 11.109375 22.023438 11.085938 22.109375 13.078125 17.078125 C 13.179688 16.820312 13.367188 16.710938 13.554688 16.710938 C 13.648438 16.710938 13.726562 16.742188 13.804688 16.796875 C 13.9375 16.898438 13.9375 17.117188 13.882812 17.28125 C 13.828125 17.429688 13.835938 17.382812 13.53125 18.101562 C 13.125 19.046875 12.859375 19.726562 12.5 20.59375 C 12.351562 20.953125 11.898438 22.070312 11.820312 22.335938 C 11.773438 22.507812 11.71875 22.789062 11.898438 22.789062 C 12.320312 22.789062 13.40625 21.765625 13.703125 21.460938 C 13.71875 21.4375 13.742188 21.429688 13.773438 21.414062 C 13.820312 21.265625 13.867188 21.125 13.90625 20.984375 C 14.015625 20.6875 14.117188 20.34375 14.320312 20.101562 C 14.382812 20.023438 14.453125 19.976562 14.53125 19.976562 C 14.75 19.976562 14.859375 20.070312 14.859375 20.289062 C 14.859375 20.375 14.804688 20.6875 14.773438 20.773438 C 14.882812 20.65625 15 20.539062 15.125 20.421875 C 16.296875 19.335938 17.132812 19.890625 17.132812 20.4375 C 17.132812 21.015625 16.4375 21.820312 16.054688 22.265625 C 15.929688 22.414062 15.671875 22.6875 15.664062 22.765625 C 15.664062 22.867188 15.734375 22.90625 15.835938 22.90625 C 15.992188 22.90625 16.335938 22.632812 16.460938 22.539062 C 16.851562 22.234375 17.382812 21.765625 17.757812 21.4375 L 18.914062 10.75 C 16.53125 12.085938 3.476562 12.09375 1.078125 10.765625 Z M 19.023438 10.101562 C 19.023438 11.742188 0.960938 11.742188 0.960938 10.101562 C 0.960938 9.414062 5.007812 8.859375 9.992188 8.859375 C 10.695312 8.859375 11.382812 8.867188 12.046875 8.890625 L 13.03125 5.085938 L 17.820312 0.046875 C 17.929688 -0.0625 18.273438 0.03125 18.59375 0.320312 C 18.914062 0.609375 19.109375 0.9375 19.007812 1.046875 L 19 1.054688 L 14.523438 5.78125 L 13.742188 8.960938 C 16.859375 9.164062 19.023438 9.59375 19.023438 10.101562 Z M 13.601562 10.460938 C 13.601562 10.398438 13.53125 10.34375 13.40625 10.296875 L 13.390625 10.359375 C 13.390625 10.460938 13 10.546875 12.523438 10.546875 C 12.046875 10.546875 11.65625 10.460938 11.65625 10.359375 C 11.65625 10.351562 11.65625 10.34375 11.664062 10.335938 L 11.679688 10.28125 C 11.539062 10.328125 11.445312 10.390625 11.445312 10.460938 C 11.445312 10.625 11.929688 10.75 12.515625 10.75 C 13.117188 10.757812 13.601562 10.625 13.601562 10.460938 Z M 13.601562 10.460938 "/>
</g>
</svg>
