<?xml version="1.0" encoding="UTF-8"?>
<svg xmlns="http://www.w3.org/2000/svg" xmlns:xlink="http://www.w3.org/1999/xlink" width="20px" height="18px" viewBox="0 0 20 18" version="1.1">
<g id="surface1">
<path fill="#eb3535" d="M 10 10.125 L 8.890625 10.125 L 8.890625 7.875 L 10 7.875 Z M 20 5.625 L 20 12.375 L 10 12.375 L 10 13.5 L 5.554688 13.5 L 5.554688 12.375 L 0 12.375 L 0 5.625 Z M 5.554688 6.75 L 1.109375 6.75 L 1.109375 11.25 L 3.332031 11.25 L 3.332031 7.875 L 4.445312 7.875 L 4.445312 11.25 L 5.554688 11.25 Z M 11.109375 6.75 L 6.667969 6.75 L 6.667969 12.375 L 8.890625 12.375 L 8.890625 11.25 L 11.109375 11.25 Z M 18.890625 6.75 L 12.222656 6.75 L 12.222656 11.25 L 14.445312 11.25 L 14.445312 7.875 L 15.554688 7.875 L 15.554688 11.25 L 16.667969 11.25 L 16.667969 7.875 L 17.777344 7.875 L 17.777344 11.25 L 18.890625 11.25 Z M 18.890625 6.75 "/>
</g>
</svg>
